<?xml version="1.0" encoding="iso-8859-1"?>
<!-- Uploaded to: SVG Repo, www.svgrepo.com, Generator: SVG Repo Mixer Tools -->
<!DOCTYPE svg PUBLIC "-//W3C//DTD SVG 1.1//EN" "http://www.w3.org/Graphics/SVG/1.1/DTD/svg11.dtd">
<svg fill="#000000" version="1.1" id="Capa_1" xmlns="http://www.w3.org/2000/svg" xmlns:xlink="http://www.w3.org/1999/xlink" 
	 width="800px" height="800px" viewBox="0 0 30.571 30.571"
	 xml:space="preserve">
<g>
	<path d="M28.251,5.146C20.19,5.146,15.615,0,15.615,0S10.379,5.146,2.319,5.146c0,0-0.82,10.136,1.868,15.958
		c1.875,4.062,5.666,7.505,11.097,9.468c5.433-1.961,9.224-5.246,11.101-9.308C29.071,15.442,28.251,5.146,28.251,5.146z
		 M15.285,23.161c-4.35,0-7.875-3.526-7.875-7.875c0-4.349,3.525-7.875,7.875-7.875c4.35,0,7.875,3.525,7.875,7.875
		C23.16,19.637,19.635,23.161,15.285,23.161z M15.814,12.099v2.372l0.357,0.014c1.188,0.065,1.992,0.273,2.411,0.622
		c0.416,0.35,0.625,0.99,0.625,1.92c0,1.002-0.229,1.705-0.682,2.109c-0.455,0.403-1.25,0.604-2.384,0.604l-0.33,0.006v1.062h-1.079
		v-1.062l-0.304-0.006c-1.129,0-1.922-0.192-2.383-0.58c-0.457-0.385-0.688-1.058-0.688-2.017l0.007-0.321h1.601v0.164
		c0,0.584,0.094,0.961,0.281,1.131c0.186,0.168,0.602,0.254,1.248,0.254l0.236,0.006v-2.569c-1.26,0-2.121-0.183-2.582-0.547
		c-0.461-0.364-0.691-1.048-0.691-2.049c0-0.971,0.23-1.635,0.694-1.993c0.464-0.357,1.323-0.537,2.579-0.537V9.761h1.08v0.922
		c1.201,0,2.021,0.172,2.462,0.514c0.441,0.343,0.66,0.98,0.66,1.911v0.218h-1.547l-0.008-0.171c0-0.704-0.438-1.055-1.316-1.055
		h-0.25v-0.001H15.814z M14.734,12.093l-0.23,0.007c-0.949,0-1.423,0.376-1.423,1.127c0,0.786,0.474,1.18,1.417,1.18
		c0.01,0,0.088,0.004,0.236,0.013V12.093z M15.814,18.378h0.23c1.028,0,1.542-0.44,1.542-1.323c0-0.482-0.112-0.802-0.343-0.955
		c-0.229-0.154-0.705-0.23-1.432-0.23v2.51L15.814,18.378L15.814,18.378z"/>
</g>
</svg>